<svg width="126" height="6" viewBox="0 0 126 6" fill="none" xmlns="http://www.w3.org/2000/svg">
<path d="M1.00002 1.32921C3.67981 1.21269 6.35961 1.09618 11.6433 1.03616C16.927 0.976141 24.7334 0.976141 29.7452 1.15091C39.8597 1.50362 43.8204 2.26837 46.3607 2.56319C47.0273 2.64054 47.8242 3.0875 47.8948 3.32582C48.5003 5.36951 43.8451 4.15377 42.7294 4.21202C42.1938 4.23999 41.7302 4.3868 53.957 4.27205C66.1838 4.15731 91.1177 3.80777 104.428 3.56944C120.098 2.97805 121.743 2.62498 123.035 2.44844C123.628 2.38841 124.094 2.38841 124.575 2.38841" stroke="url(#paint0_linear_10_45)" stroke-width="2" stroke-linecap="round"/>
<defs>
<linearGradient id="paint0_linear_10_45" x1="1.00002" y1="2.75915" x2="124.575" y2="2.75915" gradientUnits="userSpaceOnUse">
<stop stop-color="#00A277"/>
<stop offset="1" stop-color="#06B6D4"/>
</linearGradient>
</defs>
</svg>
